<svg xmlns="http://www.w3.org/2000/svg" viewBox="0 0 48 48"><path fill="#ffbe1d" d="M47 28v-8h-4.43A18.87 18.87 0 0 0 40 13.7l3.14-3.14-5.7-5.65-3.14 3.14A18.87 18.87 0 0 0 28 5.43V1h-8v4.43a18.87 18.87 0 0 0-6.3 2.62l-3.14-3.14-5.65 5.65 3.14 3.14A18.87 18.87 0 0 0 5.43 20H1v8h4.43a18.87 18.87 0 0 0 2.62 6.3l-3.14 3.14 5.65 5.65L13.7 40a18.87 18.87 0 0 0 6.3 2.57V47h8v-4.43A18.87 18.87 0 0 0 34.3 40l3.14 3.14 5.65-5.65L40 34.3a18.87 18.87 0 0 0 2.57-6.3Z"/><path d="M48 29V19h-4.64a19.63 19.63 0 0 0-2.14-5.15l3.29-3.29-7.07-7.07-3.29 3.29A19.49 19.49 0 0 0 29 4.64V0H19v4.64a19.49 19.49 0 0 0-5.15 2.14l-3.29-3.29-7.07 7.07 3.29 3.29A19.63 19.63 0 0 0 4.64 19H0v10h4.64a19.63 19.63 0 0 0 2.14 5.15l-3.29 3.29 7.07 7.07 3.29-3.29A19.49 19.49 0 0 0 19 43.36V48h10v-4.64a19.49 19.49 0 0 0 5.15-2.14l3.29 3.29 7.07-7.07-3.29-3.29A19.63 19.63 0 0 0 43.36 29Zm-9.32 5.43 3 3-4.24 4.24-3-3A18.28 18.28 0 0 1 27 41.76V46h-6v-4.24a18.24 18.24 0 0 1-7.43-3.09l-3 3-4.25-4.23 3-3A18.27 18.27 0 0 1 6.24 27H2v-6h4.24a18.13 18.13 0 0 1 3.08-7.43l-3-3 4.24-4.24 3 3A18.28 18.28 0 0 1 21 6.24V2h6v4.24a18.24 18.24 0 0 1 7.43 3.09l3-3 4.24 4.24-3 3A18.27 18.27 0 0 1 41.76 21H46v6h-4.24a18.13 18.13 0 0 1-3.08 7.43Z"/><circle cx="24" cy="24" r="14" fill="#fff"/><path fill="#7c6f66" d="M18.29 28.71 13.59 24l4.7-4.71 1.42 1.42-3.3 3.29 3.3 3.29-1.42 1.42zM29.71 28.71l-1.42-1.42 3.3-3.29-3.3-3.29 1.42-1.42 4.7 4.71-4.7 4.71zM21.036 30.725l3.996-14.001 1.924.549-3.997 14z"/></svg>