<svg xmlns="http://www.w3.org/2000/svg" viewBox="0 0 64 64"><path fill="#ff9811" d="M61 16a13 13 0 0 1-13 13 12.211 12.211 0 0 1-1.61-.1 12.82 12.82 0 0 1-4.31-1.33 12.961 12.961 0 0 1-5.65-5.65 12.82 12.82 0 0 1-1.33-4.31A12.211 12.211 0 0 1 35 16a13 13 0 0 1 26 0Z"/><circle cx="48" cy="16" r="9" fill="#ffd422"/><path fill="#ff9811" d="M29 48a13 13 0 1 1-13-13 12.211 12.211 0 0 1 1.61.1 12.82 12.82 0 0 1 4.31 1.33 12.961 12.961 0 0 1 5.65 5.65 12.82 12.82 0 0 1 1.33 4.31A12.211 12.211 0 0 1 29 48Z"/><circle cx="16" cy="48" r="9" fill="#ffd422"/><path fill="#ffd422" d="M48 20.79a7.748 7.748 0 0 1 .49 2.73 8.044 8.044 0 0 1-.14 1.47c-.11.01-.23.01-.35.01a9.1 9.1 0 0 1-3.58-.74 3.64 3.64 0 0 0 .07-.74 4.023 4.023 0 0 0-4.75-3.94A9.1 9.1 0 0 1 39 16c0-.12 0-.24.01-.35a7.987 7.987 0 0 1 7.13 2.21A7.828 7.828 0 0 1 47.66 20a4.952 4.952 0 0 1 .34.79Z"/><path fill="#c6c5ca" d="M48 25c.12 0 .24 0 .35-.01a7.944 7.944 0 0 1-1.96 3.91 12.82 12.82 0 0 1-4.31-1.33l1.23-1.23a3.9 3.9 0 0 0 1.11-2.08A9.1 9.1 0 0 0 48 25Z"/><path fill="#c6c5ca" d="M48 20.79a4.952 4.952 0 0 0-.34-.79 7.828 7.828 0 0 0-1.52-2.14 7.987 7.987 0 0 0-7.13-2.21c-.01.11-.01.23-.01.35a9.1 9.1 0 0 0 .74 3.58 4.023 4.023 0 0 1 4.75 3.94 3.64 3.64 0 0 1-.07.74A9.1 9.1 0 0 0 48 25c.12 0 .24 0 .35-.01a8.044 8.044 0 0 0 .14-1.47 7.748 7.748 0 0 0-.49-2.73zm-9.69 10.55a7.724 7.724 0 0 1 .28 2.08 7.832 7.832 0 0 1-1.12 4.05 7.763 7.763 0 0 0 1.6-1.23l7.07-7.07c.09-.09.17-.18.25-.27a12.82 12.82 0 0 1-4.31-1.33zm-7.72 2.07a3.982 3.982 0 0 1-1.04-3.86 3.849 3.849 0 0 1 1.04-1.79l2.07-2.07 3.77-3.77a12.82 12.82 0 0 1-1.33-4.31c-.09.08-.18.16-.27.25l-7.07 7.07a7.763 7.763 0 0 0-1.23 1.6 7.993 7.993 0 0 0 4.81 11.78l2.07-2.07a3.849 3.849 0 0 0 1.04-1.79 3.982 3.982 0 0 1-3.86-1.04z"/><path fill="#d8d7da" d="m25.69 32.66-3.77 3.77a12.82 12.82 0 0 0-4.31-1.33c.08-.09.16-.18.25-.27l7.07-7.07a7.763 7.763 0 0 1 1.6-1.23 7.915 7.915 0 0 0-.84 6.13Z"/><path fill="#ffd422" d="M16.34 44a4.952 4.952 0 0 1-.34-.79 7.909 7.909 0 0 1-.35-4.2c.11-.01.23-.01.35-.01a9.1 9.1 0 0 1 3.58.74 4.018 4.018 0 0 0 4.68 4.68A9.1 9.1 0 0 1 25 48c0 .12 0 .24-.01.35a7.987 7.987 0 0 1-7.13-2.21A7.828 7.828 0 0 1 16.34 44Z"/><path fill="#d8d7da" d="M38.31 31.34a8.008 8.008 0 0 0-5.65-5.65l-2.07 2.07a3.849 3.849 0 0 0-1.04 1.79 4.016 4.016 0 0 1 5.04 3.87 3.937 3.937 0 0 1-.14 1.03 3.849 3.849 0 0 1-1.04 1.79l-2.07 2.07-3.77 3.77-1.23 1.23a3.9 3.9 0 0 1-2.08 1.11 4.018 4.018 0 0 1-4.68-4.68A9.1 9.1 0 0 0 16 39c-.12 0-.24 0-.35.01a7.909 7.909 0 0 0 .35 4.2 4.952 4.952 0 0 0 .34.79 7.828 7.828 0 0 0 1.52 2.14 7.971 7.971 0 0 0 11.04.25c.09-.08.18-.16.27-.25l7.07-7.07a7.942 7.942 0 0 0 2.07-7.73Z"/><path d="M49 22v-1a3 3 0 0 0 0-6h-2a1 1 0 0 1 0-2h2a1 1 0 0 1 1 1h2a3 3 0 0 0-3-3v-1h-2v1a3 3 0 0 0 0 6h2a1 1 0 0 1 0 2h-2a1 1 0 0 1-1-1h-2a3 3 0 0 0 3 3v1Z"/><path d="M48 2a14.015 14.015 0 0 0-14 14c0 .43.024.829.058 1.218l-7.006 7a8.75 8.75 0 0 0-1.243 1.589 8.747 8.747 0 0 0-1.586 1.241l-7 7A19.176 19.176 0 0 0 16 34a14 14 0 1 0 14 14c0-.426-.024-.826-.058-1.218l7.006-7a8.731 8.731 0 0 0 1.243-1.589 8.791 8.791 0 0 0 1.586-1.241l7-7.005c.393.035.793.058 1.218.058A14 14 0 0 0 48 2Zm-9.31 27.546a8.713 8.713 0 0 0-4.237-4.235l1.765-1.765a13.818 13.818 0 0 0 4.236 4.236ZM27.4 27.031a6.754 6.754 0 0 1 1.071-1.394l6.02-6.02a13.911 13.911 0 0 0 .744 2.088l-5.345 5.341a4.844 4.844 0 0 0-1.306 2.243 4.977 4.977 0 0 0 4.133 6.227.209.209 0 0 0-.014.017l-1.632 1.632A6.967 6.967 0 0 1 27.4 27.031Zm6.174 6.535a2.964 2.964 0 0 1-3.136-3.131 3 3 0 0 1 2.274.867 2.954 2.954 0 0 1 .882 2.118c-.004.047-.022.098-.024.146Zm-5.789 6.888a13.8 13.8 0 0 0-4.235-4.236l1.764-1.764a8.716 8.716 0 0 0 4.236 4.235Zm-3.3-10.826a9.011 9.011 0 0 0 .122 2.71l-2.893 2.893a13.731 13.731 0 0 0-2.088-.744ZM36.6 36.969a6.754 6.754 0 0 1-1.071 1.394l-7.074 7.074c-.07.07-.14.131-.236.217a6.952 6.952 0 0 1-5.075 1.823l-.107 2c.159.007.319.012.48.012.111 0 .222-.011.333-.015a8 8 0 1 1-8.166-9.463l-.076-2a10 10 0 1 0 10.317 11.125 8.934 8.934 0 0 0 2.061-.868A11.995 11.995 0 1 1 16 36a11.383 11.383 0 0 1 1.487.092 11.844 11.844 0 0 1 3.978 1.228 12.046 12.046 0 0 1 4.862 4.588l-.7.7a2.924 2.924 0 0 1-.846.6 10.006 10.006 0 0 0-4.8-4.388 1 1 0 0 0-1.381.73 5 5 0 0 0 5.84 5.85 4.877 4.877 0 0 0 2.607-1.386l7.063-7.063a4.838 4.838 0 0 0 1.3-2.241 4.954 4.954 0 0 0-1.3-4.83 5.027 5.027 0 0 0-2.823-1.413l1.632-1.632a6.945 6.945 0 0 1 4.418 4.774 6.737 6.737 0 0 1 .243 1.811 6.838 6.838 0 0 1-.98 3.549ZM22.477 43.3a3.082 3.082 0 0 1-1.78-1.78 8.016 8.016 0 0 1 1.78 1.78Zm22.956-14.837-5.907 5.907a9.11 9.11 0 0 0 .064-.95 8.739 8.739 0 0 0-.194-1.752l4.615-4.615a4.87 4.87 0 0 0 1.389-2.588 4.692 4.692 0 0 0 .091-.945 5.014 5.014 0 0 0-5.078-5 8.047 8.047 0 0 1-.385-1.99 7.207 7.207 0 0 1 .894 0l.124-2c-.3-.019-.6-.012-.9 0a8 8 0 1 1 8.167 9.462 1 1 0 0 0-.944.813 6.986 6.986 0 0 1-1.724 3.431c-.069.075-.136.151-.212.227Zm-2.144-6.005a7.969 7.969 0 0 1-1.732-1.727 3 3 0 0 1 1.051.671 2.941 2.941 0 0 1 .681 1.056Zm5 5.528a8.944 8.944 0 0 0 .87-2.054 10 10 0 1 0-11.141-10.37C38 15.7 38 15.85 38 16a9.983 9.983 0 0 0 5.2 8.775 2.951 2.951 0 0 1-.6.858l-.7.7a12.06 12.06 0 0 1-4.589-4.866 11.839 11.839 0 0 1-1.228-3.983A11.261 11.261 0 0 1 36 16a12 12 0 1 1 12.285 11.986Z"/><path d="M15 45h2a1 1 0 0 1 1 1h2a3 3 0 0 0-3-3v-1h-2v1a3 3 0 0 0 0 6h2a1 1 0 0 1 0 2h-2a1 1 0 0 1-1-1h-2a3 3 0 0 0 3 3v1h2v-1a3 3 0 0 0 0-6h-2a1 1 0 0 1 0-2Z"/></svg>